<?xml version="1.0" encoding="utf-8"?>
<!-- Generator: Adobe Illustrator 18.0.0, SVG Export Plug-In . SVG Version: 6.00 Build 0)  -->
<!DOCTYPE svg PUBLIC "-//W3C//DTD SVG 1.1//EN" "http://www.w3.org/Graphics/SVG/1.1/DTD/svg11.dtd">
<svg version="1.1" id="Layer_1" xmlns="http://www.w3.org/2000/svg" xmlns:xlink="http://www.w3.org/1999/xlink" x="0px" y="0px"
	 viewBox="0 0 376.8 89.2" enable-background="new 0 0 376.8 89.2" xml:space="preserve">
<path fill="#F15D2F" d="M36,0c-14.1,0-36,3-36,3v45.7c0,19.8,36,40.4,36,40.4s36-20.6,36-40.4V3.1C72,3.1,50.1,0,36,0"/>
<path fill="none" stroke="#F15D2F" stroke-width="8.100000e-02" stroke-miterlimit="3.864" d="M36,0c-14.1,0-36,3-36,3v45.7
	c0,19.8,36,40.4,36,40.4s36-20.6,36-40.4V3.1C72,3.1,50.1,0,36,0z"/>
<path fill="#FDB845" d="M36.1,58.2c-5.1,0-9.2,2.8-10.7,7.4c-2.6,7.8,4.6,16,4.6,16l3-2.3c0,0-5-7.5-2.3-12.9c0.8-1.5,3-2.8,5.3-2.8
	c2.4,0,4.6,1.3,5.3,2.8c2.7,5.5-2.3,12.9-2.3,12.9l3,2.3c0,0,7.2-8.2,4.6-16C45.2,61,41.1,58.2,36.1,58.2"/>
<path fill="#FFFFFF" d="M36.3,31.7c0,0,2.6-1.5,5.9-1.4c4.7,0.3,9.7,1.1,12.5,1.4C57,32,63,32.2,63,32.4l3,2.9v19H38.5
	c0-1.3-1-2.3-2.2-2.3c-1.3,0-2.3,1-2.3,2.3H6.3v-19l3-2.9c-0.1-0.2,6-0.4,8.2-0.7c2.8-0.3,7.8-1.1,12.5-1.4
	C33.5,30.1,36.3,31.7,36.3,31.7"/>
<line fill="none" stroke="#231F20" stroke-width="0.323" stroke-linecap="round" stroke-miterlimit="3.864" x1="9.4" y1="51.1" x2="6.9" y2="53.5"/>
<path fill="none" stroke="#231F20" stroke-width="0.323" stroke-linecap="round" stroke-miterlimit="3.864" d="M63,33.5v17.7
	c0,0-6-0.4-8.2-0.7c-2.8-0.3-7.8-1.1-12.5-1.4c-3.4-0.2-6.2,1.4-6.2,1.4s-2.6-1.5-5.9-1.4c-4.7,0.3-9.7,1.1-12.5,1.4
	c-2.3,0.3-8.2,0.7-8.2,0.7V33.5"/>
<path fill-rule="evenodd" clip-rule="evenodd" fill="#231F20" d="M46.5,45.1l-1.8-0.2c0.3-0.6,0.6-1.2,0.9-1.9
	C45.9,43.7,46.2,44.4,46.5,45.1 M46.7,45.6c0.3,0.7,0.4,1.2,0.4,1.3c0,0.2-0.3,0.2-0.8,0.3v0.1c0.6,0,1,0,1.4,0.1
	c0.4,0,0.8,0.1,1.3,0.2v-0.1c-0.4-0.2-0.6-0.3-0.7-0.5c-0.3-0.5-1-2.3-2.3-5.5l-0.3,0c-1.2,2.9-2,4.5-2.3,5
	c-0.2,0.3-0.4,0.3-0.8,0.4V47c0.4,0,0.8,0,1.1,0c0.4,0,0.7,0.1,1.1,0.2v-0.1c-0.5-0.2-0.8-0.3-0.8-0.5c0-0.2,0.2-0.6,0.5-1.2
	L46.7,45.6z"/>
<path fill-rule="evenodd" clip-rule="evenodd" fill="#231F20" d="M49.3,41.9V42c0.5,0.2,0.7,0.4,0.8,0.5c0.1,0.1,0.1,0.7,0.1,1.8
	c0,1.6,0,2.6-0.1,2.8c0,0.1-0.3,0.3-0.8,0.4v0.1c0.5,0,0.9,0,1.2,0.1c0.3,0,0.7,0.1,1.2,0.2v-0.1c-0.6-0.2-0.9-0.4-0.9-0.6
	c-0.1-0.3-0.1-1.6-0.1-3.9c1.1,1.5,2.3,3.2,3.7,5l0.3,0c0-1,0-2,0-2.9c0-1.5,0-2.2,0.1-2.4c0.1-0.1,0.3-0.2,0.8-0.3v-0.1
	c-0.5,0-0.9,0-1.2-0.1c-0.3,0-0.7-0.1-1.2-0.2v0.1c0.6,0.2,0.9,0.4,0.9,0.6c0,0.4,0.1,1.3,0.1,2.7c0,0.2,0,0.4,0,0.6
	C53,45,52,43.5,51.1,42.1c-0.3,0-0.6,0-0.9-0.1C49.9,42,49.6,41.9,49.3,41.9"/>
<path fill-rule="evenodd" clip-rule="evenodd" fill="#231F20" d="M57,48.6c0.5,0,1,0.1,1.5,0.1c0.5,0.1,1,0.1,1.5,0.2v-0.1
	c-0.6-0.2-0.9-0.4-0.9-0.5c0-0.1-0.1-0.9-0.1-2.3c0-0.8,0-1.6,0-2.4c0.2,0,0.4,0,0.6,0c0.5,0.1,0.8,0.1,0.9,0.2
	c0.1,0.1,0.2,0.4,0.4,1l0.1,0l0-1.6c-0.6,0-1.2-0.1-1.8-0.2c-0.3,0-0.5-0.1-0.8-0.1c-0.3,0-0.5-0.1-0.8-0.1
	c-0.6-0.1-1.2-0.1-1.7-0.2l0,1.6l0.1,0c0.2-0.6,0.3-0.9,0.4-0.9c0.1,0,0.4,0,0.9,0c0.2,0,0.4,0,0.6,0.1c0,0.9,0,1.7,0,2.4
	c0,1.5,0,2.2-0.1,2.3c0,0.1-0.3,0.2-0.9,0.3V48.6"/>
<line fill="none" stroke="#231F20" stroke-width="0.323" stroke-linecap="round" stroke-miterlimit="3.864" x1="36" y1="32.2" x2="36" y2="50.5"/>
<path fill="#231F20" d="M10.5,34.4c0.3,0.1,0.6,0.2,0.7,0.4c0.2,0.4,1,2.1,2,5.1l0.3,0c0.9-2.6,1.6-4.4,2-5.5
	c0.1-0.2,0.3-0.3,0.6-0.5v-0.1c-0.3,0.1-0.6,0.1-0.9,0.1c-0.3,0-0.6,0.1-1,0.1V34c0.4,0.1,0.6,0.2,0.6,0.3c0,0.3-0.4,1.6-1.3,3.8
	c-0.8-2-1.2-3.2-1.2-3.6c0-0.1,0.2-0.2,0.7-0.5V34c-0.3,0.1-0.7,0.1-1,0.1c-0.1,0-0.2,0-0.3,0c-0.1,0-0.2,0-0.3,0
	c-0.3,0-0.6,0.1-1,0.1V34.4"/>
<path fill="#231F20" d="M18.1,39.4c0.5-0.1,0.9-0.1,1.4-0.2c0.5,0,0.9-0.1,1.4-0.1v-0.1c-0.6-0.1-0.8-0.2-0.9-0.3
	c0-0.1-0.1-0.8-0.1-2.3c0-0.8,0-1.6,0-2.4c0.2,0,0.4-0.1,0.6-0.1c0.5-0.1,0.8-0.1,0.9,0c0.1,0.1,0.2,0.4,0.4,1l0.1,0l0-1.6
	c-0.5,0.1-1.1,0.2-1.7,0.2c-0.2,0-0.5,0.1-0.8,0.1c-0.2,0-0.5,0.1-0.7,0.1c-0.6,0.1-1.1,0.1-1.6,0.1l0,1.6l0.1,0
	c0.1-0.6,0.3-1,0.4-1c0.1-0.1,0.3-0.1,0.9-0.2c0.2,0,0.3,0,0.5,0c0,0.9,0,1.7,0,2.3c0,1.5,0,2.2-0.1,2.3c0,0.1-0.3,0.3-0.9,0.5V39.4
	"/>
<path fill="#231F20" d="M23,36c0,0.3,0.3,0.6,0.6,0.6c0.3,0,0.6-0.4,0.6-0.7c0-0.4-0.3-0.6-0.6-0.6C23.3,35.3,23,35.6,23,36"/>
<path fill="#231F20" d="M25.2,32.8c0.4,0.1,0.6,0.2,0.7,0.4c0.2,0.4,1,2.1,2.1,5.1l0.3,0c0.9-2.6,1.7-4.4,2.1-5.5
	c0.1-0.2,0.3-0.3,0.7-0.5v-0.1c-0.3,0.1-0.6,0.1-1,0.1c-0.3,0-0.7,0-1,0v0.1c0.4,0.1,0.6,0.2,0.6,0.3c0,0.3-0.4,1.6-1.4,3.8
	c-0.9-2-1.3-3.2-1.3-3.6c0-0.1,0.3-0.2,0.8-0.5v-0.1c-0.4,0.1-0.7,0.1-1,0.1c-0.1,0-0.2,0-0.4,0c-0.1,0-0.2,0-0.3,0
	c-0.3,0-0.6,0.1-1,0.1V32.8"/>
<path fill-rule="evenodd" clip-rule="evenodd" fill="#231F20" d="M31.8,38c0.6,0.1,1.1,0.2,1.5,0.3c0.4,0.1,0.8,0.2,1.3,0.4l0.1-0.2
	c-0.6-0.3-0.9-0.5-0.9-0.6c0-0.1-0.1-0.9-0.1-2.3c0-1.5,0-2.2,0.1-2.3c0-0.1,0.4-0.2,0.9-0.2v-0.1c-0.5-0.1-1-0.1-1.5-0.2
	c-0.3-0.1-0.8-0.2-1.5-0.4v0.1c0.6,0.3,0.9,0.5,0.9,0.6c0,0.1,0.1,0.9,0.1,2.3c0,1.5,0,2.2-0.1,2.3c0,0.1-0.3,0.2-0.9,0.2V38"/>
<path fill="#231F20" d="M39.3,38.4c0.5-0.1,1-0.1,1.5-0.2c0.5-0.1,1-0.1,1.5-0.1v-0.1c-0.6-0.1-0.9-0.2-0.9-0.3
	c0-0.1-0.1-0.8-0.1-2.3c0-0.8,0-1.6,0-2.4c0.2,0,0.4-0.1,0.6-0.1c0.5-0.1,0.8-0.1,0.9,0c0.1,0.1,0.2,0.4,0.4,1l0.1,0l0-1.4
	c-0.6,0.1-1-0.1-1.6,0c-0.3,0-0.7,0-0.9,0c-0.3,0-0.7,0-0.9,0.1c-0.6,0.1-1,0.3-1.6,0.3l0,1.6l0.1,0c0.2-0.6,0.3-1,0.4-1
	c0.1-0.1,0.4-0.1,0.9-0.2c0.2,0,0.4,0,0.6,0c0,0.9,0,1.7,0,2.4c0,1.5,0,2.2-0.1,2.3c0,0.1-0.3,0.3-0.9,0.5V38.4"/>
<path fill-rule="evenodd" clip-rule="evenodd" fill="#231F20" d="M48.1,36.4l-1.9-0.2c0.3-0.6,0.6-1.2,1-1.9
	C47.4,35,47.7,35.7,48.1,36.4 M48.3,36.9c0.3,0.7,0.5,1.2,0.5,1.3c0,0.2-0.3,0.2-0.9,0.3v0.1c0.6,0,1.1,0,1.6,0.1
	c0.4,0,0.9,0.1,1.4,0.2v-0.1c-0.4-0.2-0.7-0.3-0.8-0.5c-0.3-0.5-1.1-2.3-2.5-5.5l-0.3,0c-1.3,2.9-2.2,4.5-2.5,4.9
	c-0.2,0.3-0.5,0.3-0.9,0.4v0.1c0.5,0,0.9,0,1.2,0.1c0.4,0,0.8,0.1,1.2,0.2v-0.1c-0.6-0.2-0.8-0.3-0.8-0.5c0-0.2,0.2-0.6,0.5-1.2
	L48.3,36.9z"/>
<path fill-rule="evenodd" clip-rule="evenodd" fill="#231F20" d="M51.7,39.1c0.4,0,0.8,0,1.1,0c0.3,0,0.7,0.1,1.2,0.2v-0.2
	c-0.8-0.3-0.9-0.3-0.9-0.7c0-0.5,0.1-1.7,0.4-3.6c0.8,1.8,1.4,3.3,2,4.6l0.2,0c0.4-1,1.1-2.5,2.1-4.5c0.3,2.2,0.4,3.6,0.4,3.9
	c0,0.3-0.2,0.4-0.9,0.5v0.2c0.6,0,1.1,0.1,1.5,0.1c0.5,0.1,1,0.1,1.4,0.2v-0.2c-0.4-0.2-0.7-0.3-0.8-0.4c-0.1-0.1-0.1-0.2-0.2-0.5
	c-0.1-0.5-0.2-1.6-0.4-3.2c-0.1-0.5-0.1-0.8-0.1-1c0-0.3,0.3-0.3,0.9-0.5v-0.1c-0.5,0-0.9-0.1-1.2-0.1c-0.2,0-0.5-0.1-0.8-0.1
	c-0.6,1.3-1.2,2.6-1.8,3.9c-0.6-1.3-1.2-2.8-1.9-4.4c-0.4,0-0.7,0-1-0.1c-0.3,0-0.6-0.1-0.9-0.1v0.1c0.8,0.3,0.9,0.4,0.9,0.8
	c0,0.3-0.1,1-0.2,2c-0.1,1.1-0.2,1.8-0.3,2.2c-0.1,0.3-0.3,0.3-0.8,0.4V39.1"/>
<path fill="#231F20" d="M17.2,45.6c0,0.4,0,0.7,0,1c0,0.8,0,1.2-0.1,1.2c-0.1,0.1-0.4,0.3-1,0.5v0.1c0.6-0.1,1.1-0.2,1.5-0.2
	c0.4,0,0.9-0.1,1.5-0.1v-0.1c-0.6-0.1-0.9-0.2-1-0.3c0-0.1-0.1-0.8-0.1-2.3c0-1.5,0-2.2,0.1-2.3c0-0.1,0.4-0.3,1-0.5v-0.1
	c-0.8,0.1-1.3,0.2-1.6,0.2c-0.4,0-0.9,0.1-1.5,0.1v0.1c0.6,0.1,0.9,0.2,1,0.3c0,0.1,0.1,0.5,0.1,1.2c0,0.2,0,0.4,0,0.7l-2.7,0.3
	c0-0.3,0-0.6,0-0.9c0-0.6,0-1,0-1c0-0.1,0.4-0.3,1-0.5v-0.1C14.9,43,14.4,43,14,43.1c-0.3,0-0.8,0.1-1.6,0.1v0.1
	c0.6,0.1,0.9,0.2,1,0.3c0,0.1,0.1,0.8,0.1,2.3s0,2.2-0.1,2.3c0,0.1-0.4,0.3-1,0.5v0.1c0.6-0.1,1.1-0.2,1.5-0.2
	c0.4,0,0.9-0.1,1.5-0.1v-0.1c-0.6-0.1-0.9-0.2-1-0.3c0-0.1-0.1-0.4-0.1-1c0-0.3,0-0.7,0-1.2L17.2,45.6"/>
<path fill-rule="evenodd" clip-rule="evenodd" fill="#231F20" d="M24.7,45.3l-2,0.2c0.3-0.6,0.6-1.3,1-2.1
	C24,44,24.3,44.6,24.7,45.3 M24.9,45.7c0.4,0.7,0.5,1.1,0.5,1.2c0,0.2-0.3,0.3-0.9,0.5v0.1c0.6-0.1,1.2-0.2,1.6-0.3
	c0.4,0,0.9-0.1,1.5-0.1v-0.1c-0.4-0.1-0.7-0.2-0.8-0.4c-0.3-0.4-1.2-2.1-2.6-5l-0.3,0c-1.3,3.2-2.3,5-2.6,5.5
	c-0.2,0.3-0.5,0.4-1,0.6V48c0.5-0.1,0.9-0.2,1.2-0.2c0.4,0,0.8-0.1,1.3-0.1v-0.1c-0.6-0.1-0.9-0.1-0.9-0.3c0-0.2,0.2-0.6,0.6-1.3
	L24.9,45.7z"/>
<path fill-rule="evenodd" clip-rule="evenodd" fill="#231F20" d="M31,41.7c0.1,0,2.6-0.3,2.2,1.3C33,44,31.1,43.9,31,43.9
	C31,42.8,31,42,31,41.7 M28.8,47.2c0.6,0,1.2-0.2,1.6-0.1c0.6,0.1,1.3,0,1.9,0.1c1.7,0.3,2.4-0.4,2.4-1.3c0-2-1.8-1.7-1.8-1.7
	c1,0,1.3-0.8,1.3-1.4c-0.2-0.6-0.3-1.1-2-1.3c-0.5-0.1-1.4,0-1.9-0.1c-0.6-0.1-1.2,0.2-1.6,0.1l0.1-0.1c0.6,0.3,1,0.5,1,0.5
	c0,0.1,0.1,0.9,0.1,2.4c0,1.5,0,2.3-0.1,2.4C29.8,46.7,28.8,47.2,28.8,47.2z M31,44.5c0.1,0,2.5-0.4,2.6,1.1c0,1-0.9,1.3-2.6,1.1
	C31,45.8,31,45.1,31,44.5z"/>
<path fill-rule="evenodd" clip-rule="evenodd" fill="#231F20" d="M42,41.3c-1.7,0-3.5,0.5-4.7,0.6c0.6,0.1,0.9,0.4,1,0.4
	c0,0.1,0,0.8,0,2.3c0,1.5,0,2.2,0,2.3c0,0.1-1,0.9-1,0.9c1.1-0.4,2.9-0.9,4.8-0.8l0-1.7l-0.1,0c-0.2,0.6-0.4,1-0.5,1.1
	c-0.1,0.1-0.4,0.2-1.1,0.3c-0.2,0-0.6,0.1-1.1,0.1c0-0.8,0-1.6,0-2.2c0.4-0.1,0.7-0.1,1-0.2c0.5-0.1,0.7-0.1,0.8-0.1
	c0.1,0,0.3,0.2,0.4,0.7l0.1,0c0-0.5,0-0.8,0-1c0-0.3,0-0.6,0.1-0.9l-0.1,0c-0.2,0.4-0.3,0.7-0.4,0.7c-0.1,0-0.4,0.1-1.1,0.2
	c-0.1,0-0.4,0.1-0.7,0.1c0-0.4,0-1,0-2.1c0.5-0.1,0.8-0.2,1.1-0.2c0.6-0.1,1-0.1,1.1-0.1c0.1,0.1,0.2,0.5,0.4,0.9l0.1-0.2L42,41.3"
	/>
<line fill="none" stroke="#231F20" stroke-width="0.323" stroke-linecap="round" stroke-miterlimit="3.864" x1="63" y1="51.3" x2="65.5" y2="53.7"/>
<path fill="#FFFFFF" d="M21.7,13.3c0.1,0.1,0.5,0.4,0.8,0c0.6-0.6,1.7-2.2,1.7-2.2s1.3-1.5,2.5-0.4c1.2,1.1,1.7,2.1,2.9,2.9
	c-0.6,1.3-0.4,2.4-0.7,4c-0.3,1.6-2.3,1.1-2.3,1.1S24.8,18.1,24,18c-0.5-0.1-0.6,0.3-0.7,0.5l0,0.1c-0.1,0.2-0.2,0.6,0.3,0.8
	c0.7,0.3,2.6,0.9,2.6,0.9s1.9,0.8,1.2,2.3c-0.7,1.5-1.5,2.3-1.8,3.7c-1.4-0.1-2.4,0.4-4,0.6C19.9,27,19.7,25,19.7,25s0-1.9-0.1-2.7
	c0-0.5-0.5-0.5-0.7-0.5h-0.2c-0.2,0-0.7,0-0.7,0.5C18,23.1,18,25,18,25s-0.2,2-1.8,1.8c-1.6-0.2-2.6-0.7-4-0.6
	c-0.3-1.4-1.1-2.2-1.8-3.7c-0.7-1.5,1.2-2.3,1.2-2.3s1.8-0.6,2.6-0.9c0.5-0.2,0.3-0.6,0.3-0.8l0-0.1c-0.1-0.2-0.2-0.6-0.7-0.5
	c-0.8,0.2-2.6,0.7-2.6,0.7s-2,0.5-2.3-1.1c-0.3-1.6-0.1-2.7-0.7-4c1.2-0.7,1.7-1.7,2.9-2.8c1.2-1.1,2.5,0.4,2.5,0.4s1.1,1.5,1.7,2.2
	c0.3,0.4,0.7,0.1,0.8,0l0.1-0.1c0.1-0.1,0.5-0.4,0.2-0.8c-0.4-0.7-1.5-2.3-1.5-2.3s-1.1-1.7,0.4-2.5c1.4-0.8,2.6-1,3.6-1.9
	c1,0.9,2.2,1.1,3.6,1.9c1.4,0.8,0.4,2.5,0.4,2.5s-1.1,1.6-1.5,2.3c-0.3,0.4,0.1,0.7,0.2,0.8L21.7,13.3z"/>
<path fill="none" stroke="#FFFFFF" stroke-width="5.100000e-02" stroke-miterlimit="3.864" d="M21.7,13.3c0.1,0.1,0.5,0.4,0.8,0
	c0.6-0.6,1.7-2.2,1.7-2.2s1.3-1.5,2.5-0.4c1.2,1.1,1.7,2.1,2.9,2.9c-0.6,1.3-0.4,2.4-0.7,4c-0.3,1.6-2.3,1.1-2.3,1.1
	S24.8,18.1,24,18c-0.5-0.1-0.6,0.3-0.7,0.5l0,0.1c-0.1,0.2-0.2,0.6,0.3,0.8c0.7,0.3,2.6,0.9,2.6,0.9s1.9,0.8,1.2,2.3
	c-0.7,1.5-1.5,2.3-1.8,3.7c-1.4-0.1-2.4,0.4-4,0.6C19.9,27,19.7,25,19.7,25s0-1.9-0.1-2.7c0-0.5-0.5-0.5-0.7-0.5h-0.2
	c-0.2,0-0.7,0-0.7,0.5C18,23.1,18,25,18,25s-0.2,2-1.8,1.8c-1.6-0.2-2.6-0.7-4-0.6c-0.3-1.4-1.1-2.2-1.8-3.7
	c-0.7-1.5,1.2-2.3,1.2-2.3s1.8-0.6,2.6-0.9c0.5-0.2,0.3-0.6,0.3-0.8l0-0.1c-0.1-0.2-0.2-0.6-0.7-0.5c-0.8,0.2-2.6,0.7-2.6,0.7
	s-2,0.5-2.3-1.1c-0.3-1.6-0.1-2.7-0.7-4c1.2-0.7,1.7-1.7,2.9-2.8c1.2-1.1,2.5,0.4,2.5,0.4s1.1,1.5,1.7,2.2c0.3,0.4,0.7,0.1,0.8,0
	l0.1-0.1c0.1-0.1,0.5-0.4,0.2-0.8c-0.4-0.7-1.5-2.3-1.5-2.3s-1.1-1.7,0.4-2.5c1.4-0.8,2.6-1,3.6-1.9c1,0.9,2.2,1.1,3.6,1.9
	c1.4,0.8,0.4,2.5,0.4,2.5s-1.1,1.6-1.5,2.3c-0.3,0.4,0.1,0.7,0.2,0.8L21.7,13.3z"/>
<circle fill="#231F20" cx="18.7" cy="17.2" r="1.6"/>
<circle fill="none" stroke="#231F20" stroke-width="0.209" stroke-miterlimit="3.864" cx="18.7" cy="17.2" r="1.6"/>
<circle fill="#231F20" cx="17.9" cy="8.7" r="0.3"/>
<circle fill="none" stroke="#231F20" stroke-width="5.300000e-02" stroke-miterlimit="3.864" cx="17.9" cy="8.7" r="0.3"/>
<circle fill="#231F20" cx="18.8" cy="7.4" r="0.3"/>
<circle fill="none" stroke="#231F20" stroke-width="5.300000e-02" stroke-miterlimit="3.864" cx="18.8" cy="7.4" r="0.3"/>
<circle fill="#231F20" cx="19.7" cy="8.7" r="0.3"/>
<circle fill="none" stroke="#231F20" stroke-width="5.300000e-02" stroke-miterlimit="3.864" cx="19.7" cy="8.7" r="0.3"/>
<path fill="#231F20" d="M18.8,12.9l0.1-0.4c0,0,0.8-0.2,0.5-0.6c0,0-0.2-0.1-0.3-0.4c-0.3-0.9-0.4-3-0.4-3s-0.1,2.1-0.4,3
	c-0.1,0.2-0.3,0.4-0.3,0.4c-0.3,0.4,0.5,0.6,0.5,0.6L18.8,12.9z"/>
<path fill="none" stroke="#231F20" stroke-width="3.600000e-02" stroke-miterlimit="12" d="M18.8,12.9l0.1-0.4c0,0,0.8-0.2,0.5-0.6
	c0,0-0.2-0.1-0.3-0.4c-0.3-0.9-0.4-3-0.4-3s-0.1,2.1-0.4,3c-0.1,0.2-0.3,0.4-0.3,0.4c-0.3,0.4,0.5,0.6,0.5,0.6L18.8,12.9z"/>
<circle fill="#231F20" cx="10.6" cy="13.4" r="0.3"/>
<circle fill="none" stroke="#231F20" stroke-width="5.300000e-02" stroke-miterlimit="3.864" cx="10.6" cy="13.4" r="0.3"/>
<circle fill="#231F20" cx="11.5" cy="12.2" r="0.3"/>
<circle fill="none" stroke="#231F20" stroke-width="5.300000e-02" stroke-miterlimit="3.864" cx="11.5" cy="12.2" r="0.3"/>
<circle fill="#231F20" cx="12.4" cy="13.4" r="0.3"/>
<circle fill="none" stroke="#231F20" stroke-width="5.300000e-02" stroke-miterlimit="3.864" cx="12.4" cy="13.4" r="0.3"/>
<path fill="#231F20" d="M11.5,17.6l0.1-0.4c0,0,0.8-0.2,0.5-0.6c0,0-0.2-0.1-0.3-0.4c-0.3-0.9-0.4-3-0.4-3s-0.1,2.1-0.4,3
	c-0.1,0.2-0.3,0.4-0.3,0.4c-0.3,0.4,0.5,0.6,0.5,0.6L11.5,17.6z"/>
<path fill="none" stroke="#231F20" stroke-width="3.600000e-02" stroke-miterlimit="12" d="M11.5,17.6l0.1-0.4c0,0,0.8-0.2,0.5-0.6
	c0,0-0.2-0.1-0.3-0.4c-0.3-0.9-0.4-3-0.4-3s-0.1,2.1-0.4,3c-0.1,0.2-0.3,0.4-0.3,0.4c-0.3,0.4,0.5,0.6,0.5,0.6L11.5,17.6z"/>
<circle fill="#231F20" cx="27.1" cy="13.4" r="0.3"/>
<circle fill="none" stroke="#231F20" stroke-width="5.300000e-02" stroke-miterlimit="3.864" cx="27.1" cy="13.4" r="0.3"/>
<circle fill="#231F20" cx="26.2" cy="12.2" r="0.3"/>
<circle fill="none" stroke="#231F20" stroke-width="5.300000e-02" stroke-miterlimit="3.864" cx="26.2" cy="12.2" r="0.3"/>
<circle fill="#231F20" cx="25.2" cy="13.4" r="0.3"/>
<circle fill="none" stroke="#231F20" stroke-width="5.300000e-02" stroke-miterlimit="3.864" cx="25.2" cy="13.4" r="0.3"/>
<path fill="#231F20" d="M26.2,17.6l-0.1-0.4c0,0-0.8-0.2-0.5-0.6c0,0,0.2-0.1,0.3-0.4c0.3-0.9,0.4-3,0.4-3s0.1,2.1,0.4,3
	c0.1,0.2,0.3,0.4,0.3,0.4c0.3,0.4-0.5,0.6-0.5,0.6L26.2,17.6z"/>
<path fill="none" stroke="#231F20" stroke-width="3.600000e-02" stroke-miterlimit="12" d="M26.2,17.6l-0.1-0.4c0,0-0.8-0.2-0.5-0.6
	c0,0,0.2-0.1,0.3-0.4c0.3-0.9,0.4-3,0.4-3s0.1,2.1,0.4,3c0.1,0.2,0.3,0.4,0.3,0.4c0.3,0.4-0.5,0.6-0.5,0.6L26.2,17.6z"/>
<circle fill="#231F20" cx="13.4" cy="21.8" r="0.3"/>
<circle fill="none" stroke="#231F20" stroke-width="5.300000e-02" stroke-miterlimit="3.864" cx="13.4" cy="21.8" r="0.3"/>
<circle fill="#231F20" cx="14.3" cy="20.5" r="0.3"/>
<circle fill="none" stroke="#231F20" stroke-width="5.300000e-02" stroke-miterlimit="3.864" cx="14.3" cy="20.5" r="0.3"/>
<circle fill="#231F20" cx="15.2" cy="21.7" r="0.3"/>
<circle fill="none" stroke="#231F20" stroke-width="5.300000e-02" stroke-miterlimit="3.864" cx="15.2" cy="21.7" r="0.3"/>
<path fill="#231F20" d="M14.4,26l0.1-0.4c0,0,0.8-0.2,0.5-0.6c0,0-0.2-0.1-0.3-0.4c-0.3-0.9-0.4-3-0.4-3s-0.1,2.1-0.4,3
	c-0.1,0.2-0.3,0.4-0.3,0.4c-0.3,0.4,0.5,0.6,0.5,0.6L14.4,26z"/>
<path fill="none" stroke="#231F20" stroke-width="3.600000e-02" stroke-miterlimit="12" d="M14.4,26l0.1-0.4c0,0,0.8-0.2,0.5-0.6
	c0,0-0.2-0.1-0.3-0.4c-0.3-0.9-0.4-3-0.4-3s-0.1,2.1-0.4,3c-0.1,0.2-0.3,0.4-0.3,0.4c-0.3,0.4,0.5,0.6,0.5,0.6L14.4,26z"/>
<circle fill="#231F20" cx="24.2" cy="21.8" r="0.3"/>
<circle fill="none" stroke="#231F20" stroke-width="5.300000e-02" stroke-miterlimit="3.864" cx="24.2" cy="21.8" r="0.3"/>
<circle fill="#231F20" cx="23.3" cy="20.5" r="0.3"/>
<circle fill="none" stroke="#231F20" stroke-width="5.300000e-02" stroke-miterlimit="3.864" cx="23.3" cy="20.5" r="0.3"/>
<circle fill="#231F20" cx="22.4" cy="21.7" r="0.3"/>
<circle fill="none" stroke="#231F20" stroke-width="5.300000e-02" stroke-miterlimit="3.864" cx="22.4" cy="21.7" r="0.3"/>
<path fill="#231F20" d="M23.4,26l-0.1-0.4c0,0-0.8-0.2-0.5-0.6c0,0,0.2-0.1,0.3-0.4c0.3-0.9,0.4-3,0.4-3s0.1,2.1,0.4,3
	C23.8,24.8,24,25,24,25c0.3,0.4-0.5,0.6-0.5,0.6L23.4,26z"/>
<path fill="none" stroke="#231F20" stroke-width="3.600000e-02" stroke-miterlimit="12" d="M23.4,26l-0.1-0.4c0,0-0.8-0.2-0.5-0.6
	c0,0,0.2-0.1,0.3-0.4c0.3-0.9,0.4-3,0.4-3s0.1,2.1,0.4,3C23.8,24.8,24,25,24,25c0.3,0.4-0.5,0.6-0.5,0.6L23.4,26z"/>
<path fill="#FFFFFF" d="M50.4,13.3c-0.1,0.1-0.5,0.4-0.8,0c-0.6-0.6-1.7-2.2-1.7-2.2s-1.3-1.5-2.5-0.4c-1.2,1.1-1.7,2.1-2.9,2.9
	c0.6,1.3,0.4,2.4,0.7,4c0.3,1.6,2.3,1.1,2.3,1.1s1.8-0.6,2.6-0.7c0.5-0.1,0.6,0.3,0.7,0.5l0,0.1c0.1,0.2,0.2,0.6-0.3,0.8
	c-0.7,0.3-2.6,0.9-2.6,0.9s-1.9,0.8-1.2,2.3c0.7,1.5,1.5,2.3,1.8,3.7c1.4-0.1,2.4,0.4,4,0.6c1.6,0.2,1.8-1.8,1.8-1.8s0-1.9,0.1-2.7
	c0-0.5,0.5-0.5,0.7-0.5h0.2c0.2,0,0.7,0,0.7,0.5c0.1,0.8,0.1,2.7,0.1,2.7s0.2,2,1.8,1.8c1.6-0.2,2.6-0.7,4-0.6
	c0.3-1.4,1.1-2.2,1.8-3.7c0.7-1.5-1.2-2.3-1.2-2.3s-1.8-0.6-2.6-0.9c-0.5-0.2-0.3-0.6-0.3-0.8l0-0.1c0.1-0.2,0.2-0.6,0.7-0.5
	c0.8,0.2,2.6,0.7,2.6,0.7s2,0.5,2.3-1.1c0.3-1.6,0.1-2.7,0.7-4c-1.2-0.7-1.7-1.7-2.9-2.8c-1.2-1.1-2.5,0.4-2.5,0.4s-1.1,1.5-1.7,2.2
	c-0.3,0.4-0.7,0.1-0.8,0l-0.1-0.1c-0.1-0.1-0.5-0.4-0.2-0.8c0.4-0.7,1.5-2.3,1.5-2.3s1.1-1.7-0.4-2.5c-1.4-0.8-2.6-1-3.6-1.9
	c-1,0.9-2.2,1.1-3.6,1.9c-1.4,0.8-0.4,2.5-0.4,2.5s1.1,1.6,1.5,2.3c0.3,0.4-0.1,0.7-0.2,0.8L50.4,13.3z"/>
<path fill="none" stroke="#FFFFFF" stroke-width="5.100000e-02" stroke-miterlimit="3.864" d="M50.4,13.3c-0.1,0.1-0.5,0.4-0.8,0
	c-0.6-0.6-1.7-2.2-1.7-2.2s-1.3-1.5-2.5-0.4c-1.2,1.1-1.7,2.1-2.9,2.9c0.6,1.3,0.4,2.4,0.7,4c0.3,1.6,2.3,1.1,2.3,1.1
	s1.8-0.6,2.6-0.7c0.5-0.1,0.6,0.3,0.7,0.5l0,0.1c0.1,0.2,0.2,0.6-0.3,0.8c-0.7,0.3-2.6,0.9-2.6,0.9s-1.9,0.8-1.2,2.3
	c0.7,1.5,1.5,2.3,1.8,3.7c1.4-0.1,2.4,0.4,4,0.6c1.6,0.2,1.8-1.8,1.8-1.8s0-1.9,0.1-2.7c0-0.5,0.5-0.5,0.7-0.5h0.2
	c0.2,0,0.7,0,0.7,0.5c0.1,0.8,0.1,2.7,0.1,2.7s0.2,2,1.8,1.8c1.6-0.2,2.6-0.7,4-0.6c0.3-1.4,1.1-2.2,1.8-3.7
	c0.7-1.5-1.2-2.3-1.2-2.3s-1.8-0.6-2.6-0.9c-0.5-0.2-0.3-0.6-0.3-0.8l0-0.1c0.1-0.2,0.2-0.6,0.7-0.5c0.8,0.2,2.6,0.7,2.6,0.7
	s2,0.5,2.3-1.1c0.3-1.6,0.1-2.7,0.7-4c-1.2-0.7-1.7-1.7-2.9-2.8c-1.2-1.1-2.5,0.4-2.5,0.4s-1.1,1.5-1.7,2.2c-0.3,0.4-0.7,0.1-0.8,0
	l-0.1-0.1c-0.1-0.1-0.5-0.4-0.2-0.8c0.4-0.7,1.5-2.3,1.5-2.3s1.1-1.7-0.4-2.5c-1.4-0.8-2.6-1-3.6-1.9c-1,0.9-2.2,1.1-3.6,1.9
	c-1.4,0.8-0.4,2.5-0.4,2.5s1.1,1.6,1.5,2.3c0.3,0.4-0.1,0.7-0.2,0.8L50.4,13.3z"/>
<circle fill="#231F20" cx="53.3" cy="17.2" r="1.6"/>
<circle fill="none" stroke="#231F20" stroke-width="0.209" stroke-miterlimit="3.864" cx="53.3" cy="17.2" r="1.6"/>
<circle fill="#231F20" cx="54.2" cy="8.7" r="0.3"/>
<circle fill="none" stroke="#231F20" stroke-width="5.300000e-02" stroke-miterlimit="3.864" cx="54.2" cy="8.7" r="0.3"/>
<circle fill="#231F20" cx="53.2" cy="7.4" r="0.3"/>
<circle fill="none" stroke="#231F20" stroke-width="5.300000e-02" stroke-miterlimit="3.864" cx="53.2" cy="7.4" r="0.3"/>
<circle fill="#231F20" cx="52.3" cy="8.7" r="0.3"/>
<circle fill="none" stroke="#231F20" stroke-width="5.300000e-02" stroke-miterlimit="3.864" cx="52.3" cy="8.7" r="0.3"/>
<path fill="#231F20" d="M53.2,12.9l-0.1-0.4c0,0-0.8-0.2-0.5-0.6c0,0,0.2-0.1,0.3-0.4c0.3-0.9,0.4-3,0.4-3s0.1,2.1,0.4,3
	c0.1,0.2,0.3,0.4,0.3,0.4c0.3,0.4-0.5,0.6-0.5,0.6L53.2,12.9z"/>
<path fill="none" stroke="#231F20" stroke-width="3.600000e-02" stroke-miterlimit="12" d="M53.2,12.9l-0.1-0.4c0,0-0.8-0.2-0.5-0.6
	c0,0,0.2-0.1,0.3-0.4c0.3-0.9,0.4-3,0.4-3s0.1,2.1,0.4,3c0.1,0.2,0.3,0.4,0.3,0.4c0.3,0.4-0.5,0.6-0.5,0.6L53.2,12.9z"/>
<circle fill="#231F20" cx="61.5" cy="13.4" r="0.3"/>
<circle fill="none" stroke="#231F20" stroke-width="5.300000e-02" stroke-miterlimit="3.864" cx="61.5" cy="13.4" r="0.3"/>
<circle fill="#231F20" cx="60.6" cy="12.2" r="0.3"/>
<circle fill="none" stroke="#231F20" stroke-width="5.300000e-02" stroke-miterlimit="3.864" cx="60.6" cy="12.2" r="0.3"/>
<circle fill="#231F20" cx="59.7" cy="13.4" r="0.3"/>
<circle fill="none" stroke="#231F20" stroke-width="5.300000e-02" stroke-miterlimit="3.864" cx="59.7" cy="13.4" r="0.3"/>
<path fill="#231F20" d="M60.6,17.6l-0.1-0.4c0,0-0.8-0.2-0.5-0.6c0,0,0.2-0.1,0.3-0.4c0.3-0.9,0.4-3,0.4-3s0.1,2.1,0.4,3
	c0.1,0.2,0.3,0.4,0.3,0.4c0.3,0.4-0.5,0.6-0.5,0.6L60.6,17.6z"/>
<path fill="none" stroke="#231F20" stroke-width="3.600000e-02" stroke-miterlimit="12" d="M60.6,17.6l-0.1-0.4c0,0-0.8-0.2-0.5-0.6
	c0,0,0.2-0.1,0.3-0.4c0.3-0.9,0.4-3,0.4-3s0.1,2.1,0.4,3c0.1,0.2,0.3,0.4,0.3,0.4c0.3,0.4-0.5,0.6-0.5,0.6L60.6,17.6z"/>
<circle fill="#231F20" cx="45" cy="13.4" r="0.3"/>
<circle fill="none" stroke="#231F20" stroke-width="5.300000e-02" stroke-miterlimit="3.864" cx="45" cy="13.4" r="0.3"/>
<circle fill="#231F20" cx="45.9" cy="12.2" r="0.3"/>
<circle fill="none" stroke="#231F20" stroke-width="5.300000e-02" stroke-miterlimit="3.864" cx="45.9" cy="12.2" r="0.3"/>
<circle fill="#231F20" cx="46.8" cy="13.4" r="0.3"/>
<circle fill="none" stroke="#231F20" stroke-width="5.300000e-02" stroke-miterlimit="3.864" cx="46.8" cy="13.4" r="0.3"/>
<path fill="#231F20" d="M45.9,17.6l0.1-0.4c0,0,0.8-0.2,0.5-0.6c0,0-0.2-0.1-0.3-0.4c-0.3-0.9-0.4-3-0.4-3s-0.1,2.1-0.4,3
	c-0.1,0.2-0.3,0.4-0.3,0.4c-0.3,0.4,0.5,0.6,0.5,0.6L45.9,17.6z"/>
<path fill="none" stroke="#231F20" stroke-width="3.600000e-02" stroke-miterlimit="12" d="M45.9,17.6l0.1-0.4c0,0,0.8-0.2,0.5-0.6
	c0,0-0.2-0.1-0.3-0.4c-0.3-0.9-0.4-3-0.4-3s-0.1,2.1-0.4,3c-0.1,0.2-0.3,0.4-0.3,0.4c-0.3,0.4,0.5,0.6,0.5,0.6L45.9,17.6z"/>
<circle fill="#231F20" cx="58.6" cy="21.8" r="0.3"/>
<circle fill="none" stroke="#231F20" stroke-width="5.300000e-02" stroke-miterlimit="3.864" cx="58.6" cy="21.8" r="0.3"/>
<circle fill="#231F20" cx="57.7" cy="20.5" r="0.3"/>
<circle fill="none" stroke="#231F20" stroke-width="5.300000e-02" stroke-miterlimit="3.864" cx="57.7" cy="20.5" r="0.3"/>
<circle fill="#231F20" cx="56.8" cy="21.7" r="0.3"/>
<circle fill="none" stroke="#231F20" stroke-width="5.300000e-02" stroke-miterlimit="3.864" cx="56.8" cy="21.7" r="0.3"/>
<path fill="#231F20" d="M57.7,26l-0.1-0.4c0,0-0.8-0.2-0.5-0.6c0,0,0.2-0.1,0.3-0.4c0.3-0.9,0.4-3,0.4-3s0.1,2.1,0.4,3
	c0.1,0.2,0.3,0.4,0.3,0.4c0.3,0.4-0.5,0.6-0.5,0.6L57.7,26z"/>
<path fill="none" stroke="#231F20" stroke-width="3.600000e-02" stroke-miterlimit="12" d="M57.7,26l-0.1-0.4c0,0-0.8-0.2-0.5-0.6
	c0,0,0.2-0.1,0.3-0.4c0.3-0.9,0.4-3,0.4-3s0.1,2.1,0.4,3c0.1,0.2,0.3,0.4,0.3,0.4c0.3,0.4-0.5,0.6-0.5,0.6L57.7,26z"/>
<circle fill="#231F20" cx="47.9" cy="21.8" r="0.3"/>
<circle fill="none" stroke="#231F20" stroke-width="5.300000e-02" stroke-miterlimit="3.864" cx="47.9" cy="21.8" r="0.3"/>
<circle fill="#231F20" cx="48.8" cy="20.5" r="0.3"/>
<circle fill="none" stroke="#231F20" stroke-width="5.300000e-02" stroke-miterlimit="3.864" cx="48.8" cy="20.5" r="0.3"/>
<circle fill="#231F20" cx="49.7" cy="21.7" r="0.3"/>
<circle fill="none" stroke="#231F20" stroke-width="5.300000e-02" stroke-miterlimit="3.864" cx="49.7" cy="21.7" r="0.3"/>
<path fill="#231F20" d="M48.7,26l0.1-0.4c0,0,0.8-0.2,0.5-0.6c0,0-0.2-0.1-0.3-0.4c-0.3-0.9-0.4-3-0.4-3s-0.1,2.1-0.4,3
	c-0.1,0.2-0.3,0.4-0.3,0.4c-0.3,0.4,0.5,0.6,0.5,0.6L48.7,26z"/>
<path fill="none" stroke="#231F20" stroke-width="3.600000e-02" stroke-miterlimit="12" d="M48.7,26l0.1-0.4c0,0,0.8-0.2,0.5-0.6
	c0,0-0.2-0.1-0.3-0.4c-0.3-0.9-0.4-3-0.4-3s-0.1,2.1-0.4,3c-0.1,0.2-0.3,0.4-0.3,0.4c-0.3,0.4,0.5,0.6,0.5,0.6L48.7,26z"/>
<path fill="none" stroke="#231F20" stroke-width="0.323" stroke-miterlimit="3.864" d="M26.6,69c-0.1,0.7-0.1,1.4,0,2.1"/>
<path fill="none" stroke="#231F20" stroke-width="0.323" stroke-miterlimit="3.864" d="M30.8,61.6c-0.5,0.4-1.1,0.8-1.5,1.2"/>
<path fill="none" stroke="#231F20" stroke-width="0.323" stroke-miterlimit="3.864" d="M27.8,64.9c-0.2,0.4-0.5,1-0.8,1.7"/>
<path fill="none" stroke="#231F20" stroke-width="0.323" stroke-miterlimit="3.864" d="M27.2,73.5c0.2,0.6,0.4,1.3,0.7,1.9"/>
<path fill="none" stroke="#231F20" stroke-width="0.323" stroke-miterlimit="3.864" d="M29,77.7c0.3,0.6,0.6,1.1,0.9,1.6"/>
<path fill="none" stroke="#231F20" stroke-width="0.323" stroke-miterlimit="3.864" d="M45.5,69c0.1,0.7,0.1,1.4,0,2.1"/>
<path fill="none" stroke="#231F20" stroke-width="0.323" stroke-miterlimit="3.864" d="M41.2,61.6c0.5,0.4,1.1,0.8,1.5,1.2"/>
<path fill="none" stroke="#231F20" stroke-width="0.323" stroke-miterlimit="3.864" d="M44.2,64.9c0.2,0.4,0.5,1,0.8,1.7"/>
<path fill="none" stroke="#231F20" stroke-width="0.323" stroke-miterlimit="3.864" d="M44.9,73.5c-0.2,0.6-0.4,1.3-0.7,1.9"/>
<path fill="none" stroke="#231F20" stroke-width="0.323" stroke-miterlimit="3.864" d="M43.1,77.7c-0.3,0.6-0.6,1.1-0.9,1.6"/>
<path fill="none" stroke="#231F20" stroke-width="0.323" stroke-linecap="round" stroke-miterlimit="3.864" d="M41.2,60.3
	c-3.7-0.7-5.2,1.3-5.2,1.3s-1.5-2-5.2-1.3"/>
<path fill="#231F20" d="M96.5,4.4c-2.1,0-4.1,0.1-6.2,0.1c-2,0-4-0.1-6.2-0.1v1.7l2.5,0.4c0.3,1.7,0.3,4.5,0.3,7
	c0,3.1-0.1,6.2-0.1,9.1c0,4.5,3.1,8.8,11,8.8c6.4,0,11.9-2.7,11.9-10.7c0-1.9-0.1-4.4-0.1-6.8c0-2.9,0.1-5.5,0.3-7.3l2.5-0.4V4.4
	c-1.6,0-3.2,0.1-4.8,0.1c-1.6,0-3.2-0.1-4.8-0.1v1.7l2.4,0.4c0.2,3.1,0.5,9.9,0.5,14.5c0,3.2-1.1,6.6-6.2,6.6
	c-5.1,0-5.8-3.9-5.8-8.1c0-6.7,0.1-10.7,0.4-13l2.5-0.4V4.4"/>
<path fill="#231F20" d="M114,30.8c1.9,0,3.7-0.1,5.6-0.1c1.9,0,3.7,0.1,5.6,0.1v-1.7l-2.3-0.4c-0.1-2.8-0.2-5.6-0.2-7.8v-0.4
	c0-3.3,0.8-6.5,4-6.5c2.5,0,3,2.4,3,4.9v4.4c0,3.3-0.1,5.7-0.2,7.6c1.1,0,2.2-0.1,3.3-0.1c1.9,0,3.7,0.1,5.6,0.1v-1.7l-2.3-0.4
	c-0.1-2.8-0.2-5.6-0.2-7.8c0-1.1,0-2.5,0-3.8c0-5.5-2.6-7.4-6.2-7.4c-2.9,0-5.2,1.4-6.9,3.3l-0.1-0.1c0.1-1,0.1-2.1,0.2-3.2h-2.7
	c-1.8,0.5-5.1,1-6.6,1.1v1.7c0.9,0.1,1.9,0.3,2.7,0.5c0.1,2.9,0.2,5.7,0.2,7.9s-0.1,5-0.2,7.8l-2.3,0.4V30.8"/>
<path fill-rule="evenodd" clip-rule="evenodd" fill="#231F20" d="M142.7,4.2c0,1.9,1.5,3.4,3.4,3.4c1.9,0,3.4-1.5,3.4-3.4
	c0-1.9-1.5-3.4-3.4-3.4C144.2,0.8,142.7,2.3,142.7,4.2 M140.5,30.8c1.9,0,3.7-0.1,5.6-0.1c1.9,0,3.7,0.1,5.6,0.1v-1.7l-2.3-0.4
	c-0.1-2.8-0.2-5.6-0.2-7.8v-3.3c0-2.2,0.1-5,0.2-7.8h-2.7c-1.8,0.5-5.1,1-6.6,1.1v1.7c0.9,0.1,1.9,0.3,2.7,0.5
	c0.1,2.9,0.2,5.7,0.2,7.9s-0.1,5-0.2,7.8l-2.3,0.4V30.8z"/>
<path fill="#231F20" d="M152.2,11.8l1.7,0.4c1.9,4.7,4.5,11.4,7.1,18.9c1,0,2-0.1,3-0.1c1,0,2,0.1,3,0.1c3.3-9.7,6.2-17.2,7.2-18.9
	l1.5-0.4v-1.7c-1.3,0-2.7,0.1-4,0.1c-1.3,0-2.7-0.1-4-0.1v1.7l1.9,0.4c-0.7,2-3.5,11.7-4.2,14.9h-0.1c-1.3-5.1-3.7-11.7-4.6-14.9
	l2.1-0.4v-1.7c-1.8,0-3.5,0.1-5.3,0.1c-1.8,0-3.5-0.1-5.3-0.1V11.8"/>
<path fill-rule="evenodd" clip-rule="evenodd" fill="#231F20" d="M195.7,24.1c-2.1,2.2-4.3,2.9-6.5,2.9c-4.6,0-6.7-3-6.7-7.4
	c2.2,0,4.4-0.1,6.6-0.1c2.7,0,5.4,0.1,8.1,0.1c0.1-0.4,0.1-0.8,0.1-1.2c0-5.5-3.1-8.8-9.4-8.8c-6.5,0-12.2,4.5-12.2,11.6
	c0,7.1,5.8,10,10.9,10c4.7,0,8.6-1.7,11.3-5.2L195.7,24.1 M191,16.5c-2.7,0.4-5.5,0.4-8.2,0.4c0.3-2.6,2.4-4.5,4.8-4.5
	c2.8,0,3.4,2,3.4,3.2V16.5z"/>
<path fill="#231F20" d="M199.8,12.5c0.9,0.1,1.9,0.3,2.7,0.5c0.1,2.9,0.2,5.7,0.2,7.9s-0.1,5-0.2,7.8l-2.3,0.4v1.7
	c1.9,0,3.7-0.1,5.6-0.1c2.1,0,4.1,0.1,6.2,0.1v-1.7l-3-0.4c-0.1-2.8-0.2-5.6-0.2-7.6c0-4.7,2.5-7.1,4.4-7.1c0.4,0,0.8,0.1,1.2,0.2
	l0.1,1.5l1.6,0.2c0.3-1.7,1.2-4.2,1.9-5.6c-0.8-0.4-1.9-0.6-2.6-0.6c-3.2,0-5.6,1.8-7.2,5l-0.1-0.1c0.1-1.6,0.3-3.3,0.4-4.9h-2.2
	c-1.8,0.5-5.1,1-6.6,1.1V12.5"/>
<path fill="#231F20" d="M235.4,16c0.4-1.6,1-3.5,1.7-5.1c-2.2-0.9-5.1-1.3-7-1.3c-7.4,0-10.3,3.4-10.3,6.9c0,3,2.4,4.6,6.4,5.8
	c5.1,1.4,5.8,1.8,5.8,3.5c0,0.9-1,2.2-3.9,2.2c-1.8,0-3.7-0.6-5-1.5l0.3-1.7l-1.6-0.7c-1,1.7-2.2,3.4-3.4,5c3.7,1.8,6.8,2.3,10,2.3
	c6.2,0,9.8-3.6,9.8-7.4c0-2.7-1.9-4.8-5.2-5.7l-4-1.1c-2.7-0.8-3.2-1.4-3.2-2.3c0-1,1.1-1.9,2.7-1.9c1.8,0,3.1,0.2,5.2,1.3v1.4
	L235.4,16"/>
<path fill-rule="evenodd" clip-rule="evenodd" fill="#231F20" d="M243.1,4.2c0,1.9,1.5,3.4,3.4,3.4c1.9,0,3.4-1.5,3.4-3.4
	c0-1.9-1.5-3.4-3.4-3.4C244.6,0.8,243.1,2.3,243.1,4.2 M240.9,30.8c1.9,0,3.7-0.1,5.6-0.1c1.9,0,3.7,0.1,5.6,0.1v-1.7l-2.3-0.4
	c-0.1-2.8-0.2-5.6-0.2-7.8v-3.3c0-2.2,0.1-5,0.2-7.8h-2.7c-1.8,0.5-5.1,1-6.6,1.1v1.7c0.9,0.1,1.9,0.3,2.7,0.5
	c0.1,2.9,0.2,5.7,0.2,7.9s-0.1,5-0.2,7.8l-2.3,0.4V30.8z"/>
<path fill="#231F20" d="M256,10.2l-2.5,1.1v1.7h2.5v6.6c0,1.7-0.1,3.6-0.1,5.8c0,4,2.5,5.8,5.6,5.8c2.6,0,4.5-1.1,6.7-3.3l-1.7-2
	c-0.9,0.7-1.6,1-2.3,1c-1.6,0-2.2-1.6-2.2-3.3V13.1c1.2,0,2.6,0,4,0.1l1.2-3.1c-1.8,0.1-3.6,0.1-5.2,0.1V4.9L256,6.3V10.2"/>
<path fill="#231F20" d="M280.5,30.8c-0.9,2.7-3.3,6.4-6.8,6.4c-0.9,0-1.6-0.1-2.3-0.4l-0.3-1.9l-1.8-0.1c-0.1,1.2-0.5,3.1-1.6,6.3
	c0.8,0.2,2.3,0.6,3.4,0.6c5.4,0,9.8-2.8,12.1-9.4c1.6-4.5,5.9-16.1,8-20l1.1-0.4v-1.7c-1.2,0-2.4,0.1-3.6,0.1
	c-1.4,0-2.9-0.1-4.3-0.1v1.7l1.9,0.4c-1.1,4.6-2.9,10-4,14.1h-0.1c-1.2-4.3-3.6-10.9-4.5-14.1l1.9-0.4v-1.7c-1.8,0-3.7,0.1-5.5,0.1
	c-1.7,0-3.4-0.1-5.1-0.1v1.7l1.6,0.4c1.8,3.8,5.1,12.3,7.4,18.5H280.5"/>
<path fill-rule="evenodd" clip-rule="evenodd" fill="#231F20" d="M315.3,11.9c3.3,0,4.5,2.9,4.5,6c0,4.5-2.5,11.1-7.9,11.1
	c-4.2,0-4.2-4.9-4.2-5.8C307.8,18.3,310.9,11.9,315.3,11.9 M316.4,9.7c-6.9,0-13.2,6.8-13.2,13.6c0,5.5,3.9,7.9,8.1,7.9
	c6.9,0,13.2-6.6,13.2-13.4C324.4,12.8,321.4,9.7,316.4,9.7z"/>
<path fill="#231F20" d="M338.4,12.2l1.2-2h-4.8l0.3-1.5c0.6-2.8,1.5-5.4,4.9-5.4c1,0,2,0.2,2.4,0.8l-0.5,1.7l1,0.5
	c0.3-0.6,2.1-3.6,2.6-4.1c-1.7-1-3.2-1.2-4.4-1.2c-5.5,0-9.5,3.9-10.8,9.1l-2.1,0.4l-0.3,1.4h2c-1,5.4-1.7,10.9-3,16.2
	c-1.2,4.7-2.7,10.9-6.6,10.9c-0.7,0-1.7-0.3-3.2-1.2c-0.4,0.8-0.7,1.3-1.6,2.6c1.3,0.8,3,0.9,3.7,0.9c7.5,0,10.8-8.2,13.2-19.8
	c0.7-3.2,1.3-6.4,2-9.3H338.4"/>
<path fill="#231F20" d="M84.7,87c5.8-0.1,11.6-0.2,17.4-0.2h17.4c0.4-3,1.3-6.1,2.3-9.3l-2.8-1l-2,3.4c-3,0.9-7.9,1.4-12.8,1.4
	c-1.6,0-3-0.1-4.2-0.3c-0.2-3.3-0.3-7.2-0.3-12.4v-8.2c0-4.4,0.2-7.8,0.5-11.4l5-0.7v-2.7c-3.4,0.1-6.8,0.2-10.2,0.2
	c-3.4,0-6.8-0.1-10.2-0.2v2.7l3.8,0.7c0.3,3.5,0.5,7,0.5,11.4v11.8c0,4.4-0.2,7.8-0.5,11.4l-3.8,0.7V87"/>
<path fill-rule="evenodd" clip-rule="evenodd" fill="#231F20" d="M155.1,76.5c-3.3,3.4-6.8,4.6-10.1,4.6c-7.2,0-10.4-4.8-10.4-11.5
	c3.4-0.1,6.9-0.2,10.3-0.2c4.2,0,8.4,0.1,12.7,0.2c0.1-0.7,0.2-1.3,0.2-1.9c0-8.6-4.9-13.8-14.6-13.8C132.9,54,124,61,124,72.1
	c0,11.1,9.1,15.6,17,15.6c7.3,0,13.5-2.7,17.6-8.1L155.1,76.5 M147.8,64.6c-4.2,0.6-8.5,0.7-12.8,0.7c0.4-4.1,3.7-7,7.4-7
	c4.4,0,5.3,3.1,5.3,5V64.6z"/>
<path fill-rule="evenodd" clip-rule="evenodd" fill="#231F20" d="M165.5,45.4c0,2.9,2.4,5.3,5.3,5.3c3,0,5.3-2.4,5.3-5.3
	c0-2.9-2.4-5.3-5.3-5.3C167.9,40,165.5,42.4,165.5,45.4 M162.2,87c2.9-0.1,5.8-0.2,8.7-0.2c2.9,0,5.8,0.1,8.7,0.2v-2.7l-3.6-0.7
	c-0.2-4.4-0.3-8.8-0.3-12.2v-5.2c0-3.4,0.2-7.8,0.3-12.2h-4.2c-2.8,0.8-8,1.6-10.3,1.7v2.7c1.5,0.2,2.9,0.5,4.3,0.8
	c0.2,4.5,0.3,8.9,0.3,12.3c0,3.4-0.2,7.8-0.3,12.2l-3.6,0.7V87z"/>
<path fill="#231F20" d="M212.1,77.6c-2.8,2.3-5.5,3.4-8.4,3.4c-8,0-10.6-6.4-10.6-10.9c0-6.6,2.8-11.1,8.4-11.1
	c2.3,0,4.5,0.3,6.6,1.9l0.3,2.8l2.8,0.4c0.5-2.4,1.6-6,2.6-8.2c-2.1-1.2-6.8-2-10.3-2c-12.1,0-21,7.7-21,18.2
	c0,11.1,9.1,15.6,17,15.6c6.2,0,10.8-2,15.4-6.7L212.1,77.6"/>
<path fill-rule="evenodd" clip-rule="evenodd" fill="#231F20" d="M249.2,76.5c-3.3,3.4-6.8,4.6-10.1,4.6c-7.2,0-10.4-4.8-10.4-11.5
	c3.4-0.1,6.9-0.2,10.3-0.2c4.2,0,8.4,0.1,12.7,0.2c0.1-0.7,0.2-1.3,0.2-1.9c0-8.6-4.9-13.8-14.6-13.8C227,54,218,61,218,72.1
	c0,11.1,9.1,15.6,17,15.6c7.3,0,13.5-2.7,17.6-8.1L249.2,76.5 M241.9,64.6c-4.2,0.6-8.5,0.7-12.8,0.7c0.4-4.1,3.7-7,7.4-7
	c4.4,0,5.3,3.1,5.3,5V64.6z"/>
<path fill="#231F20" d="M280.9,63.8c0.7-2.5,1.6-5.4,2.7-7.9c-3.4-1.4-8-2-11-2c-11.5,0-16.1,5.3-16.1,10.8c0,4.6,3.8,7.3,10,9
	c8,2.3,9.1,2.8,9.1,5.4c0,1.4-1.6,3.4-6.2,3.4c-2.8,0-5.8-0.9-7.8-2.4l0.4-2.7l-2.4-1.2c-1.5,2.6-3.5,5.3-5.3,7.8
	c5.8,2.8,10.7,3.5,15.6,3.5c9.8,0,15.3-5.6,15.3-11.6c0-4.2-3-7.4-8.2-8.9l-6.2-1.7c-4.3-1.2-5-2.3-5-3.5c0-1.6,1.7-2.9,4.2-2.9
	c2.8,0,4.9,0.3,8.2,2v2.2L280.9,63.8"/>
<path fill="#231F20" d="M291.5,54.8l-3.9,1.7v2.7h3.9v10.3c0,2.7-0.1,5.6-0.1,9.1c0,6.3,3.9,9.1,8.8,9.1c4.1,0,7-1.7,10.4-5.1
	l-2.6-3.1c-1.4,1.2-2.4,1.6-3.6,1.6c-2.5,0-3.4-2.4-3.4-5.2V59.2c1.9,0,4.1,0.1,6.3,0.2l1.9-4.8c-2.8,0.2-5.6,0.2-8.2,0.2v-8.3
	l-9.5,2.1V54.8"/>
<path fill-rule="evenodd" clip-rule="evenodd" fill="#231F20" d="M343.7,76.5c-3.3,3.4-6.8,4.6-10.1,4.6c-7.2,0-10.4-4.8-10.4-11.5
	c3.4-0.1,6.9-0.2,10.3-0.2c4.2,0,8.4,0.1,12.7,0.2c0.1-0.7,0.2-1.3,0.2-1.9c0-8.6-4.9-13.8-14.6-13.8c-10.2,0-19.1,7.1-19.1,18.2
	c0,11.1,9.1,15.6,17,15.6c7.3,0,13.5-2.7,17.6-8.1L343.7,76.5 M336.4,64.6c-4.2,0.6-8.5,0.7-12.8,0.7c0.4-4.1,3.7-7,7.4-7
	c4.4,0,5.3,3.1,5.3,5V64.6z"/>
<path fill="#231F20" d="M348.3,58.3c1.5,0.2,2.9,0.5,4.3,0.8c0.2,4.5,0.3,8.9,0.3,12.3c0,3.4-0.2,7.8-0.3,12.2l-3.6,0.7V87
	c2.9-0.1,5.8-0.2,8.7-0.2c3.3,0,6.4,0.1,9.8,0.2v-2.7l-4.6-0.7c-0.2-4.4-0.3-8.8-0.3-11.9c0-7.3,3.9-11.1,6.9-11.1
	c0.6,0,1.2,0.1,1.8,0.3l0.2,2.4l2.4,0.3c0.5-2.6,1.9-6.5,3-8.8c-1.2-0.6-3-0.9-4.1-0.9c-5,0-8.7,2.8-11.2,7.8l-0.1-0.1
	c0.2-2.6,0.5-5.2,0.7-7.7h-3.4c-2.8,0.8-8,1.6-10.3,1.7V58.3"/>
</svg>
